<?xml version="1.0" standalone="no"?>
<!DOCTYPE svg PUBLIC "-//W3C//DTD SVG 20010904//EN"
 "http://www.w3.org/TR/2001/REC-SVG-20010904/DTD/svg10.dtd">
<svg version="1.0" xmlns="http://www.w3.org/2000/svg"
 width="880.000000pt" height="930.000000pt" viewBox="0 0 880.000000 930.000000"
 preserveAspectRatio="xMidYMid meet">

<g transform="translate(0.000000,930.000000) scale(0.100000,-0.100000)"
fill="#000000" stroke="none">
<path d="M814 8890 c-220 -32 -367 -172 -403 -381 -8 -48 -11 -1040 -11 -3660
0 -3903 -3 -3660 54 -3785 49 -106 152 -188 291 -231 58 -17 173 -18 2940 -18
2377 0 2893 2 2953 14 143 26 257 104 306 210 20 44 21 59 21 416 l0 370
-2772 3 -2773 2 0 3025 0 3025 2773 2 2772 3 0 370 c0 357 -1 372 -21 416 -47
102 -144 173 -283 207 -60 15 -311 17 -2931 18 -1576 1 -2888 -2 -2916 -6z"/>
<path d="M5950 6915 c0 -258 -3 -642 -7 -852 l-6 -383 -1509 0 -1508 0 0 -780
0 -780 1510 0 1510 0 2 -891 3 -891 260 269 c142 147 397 410 565 583 168 173
451 466 630 650 178 184 392 405 475 490 83 85 236 242 339 349 l188 193 -154
157 c-84 86 -324 332 -533 546 -209 215 -472 484 -585 600 -113 115 -288 295
-390 400 -102 104 -269 276 -371 380 -102 105 -238 244 -302 310 l-116 120 -1
-470z"/>
</g>
</svg>
