<?xml version="1.0"?>
<svg xmlns="http://www.w3.org/2000/svg" id="Layer_1" data-name="Layer 1" viewBox="0 0 512 512" width="512" height="512"><title>Restaurant Menu</title><path d="M197.363,75.828A32.732,32.732,0,0,0,186.087,74H55.964A32.736,32.736,0,0,0,23,106.682V385.021A32.989,32.989,0,0,0,55.964,418H186.087a46.854,46.854,0,0,1,16.061,2.84l42.575,15.486A32.951,32.951,0,0,0,249,437.564V93.441a46.565,46.565,0,0,1-9.062-2.212Zm-6.676,82.211L140,320.283V343h18a7,7,0,0,1,0,14H109a7,7,0,0,1,0-14h17V320.307L79.166,157.9a6.965,6.965,0,0,1,6.726-8.9h98.113a6.962,6.962,0,0,1,6.682,9.039Z"/><path d="M139.989,219.459c-3.979,3.218-9.428,7.624-19.409,7.624a28.621,28.621,0,0,1-7.139-.857l19.812,68.7,24.3-77.777a9.844,9.844,0,0,0-6.954-2.2C145.568,214.95,143.349,216.744,139.989,219.459Z"/><path d="M456.036,74H325.913a32.732,32.732,0,0,0-11.276,1.828L272.062,91.15A46.845,46.845,0,0,1,263,93.441V437.564a32.951,32.951,0,0,0,4.277-1.238l42.575-15.486A46.854,46.854,0,0,1,325.913,418H456.036A32.989,32.989,0,0,0,489,385.021V106.682A32.736,32.736,0,0,0,456.036,74ZM318.3,145h51.161a7,7,0,0,1,0,14H318.3a7,7,0,0,1,0-14ZM439.456,347H318.3a7,7,0,0,1,0-14H439.456a7,7,0,0,1,0,14Zm0-62H318.3a7,7,0,0,1,0-14H439.456a7,7,0,0,1,0,14Zm0-63H318.3a7,7,0,0,1,0-14H439.456a7,7,0,0,1,0,14Z"/><path d="M107.766,206.57c1.015.767,1.942,1.513,2.79,2.227,3.173,2.673,5.089,4.289,10.024,4.289,5.029,0,7.248-1.792,10.608-4.508,3.98-3.216,9.429-7.616,19.409-7.616a24.769,24.769,0,0,1,11.255,2.45L174.484,163H95.2Z"/></svg>
