<?xml version="1.0" standalone="no"?>
<!DOCTYPE svg PUBLIC "-//W3C//DTD SVG 20010904//EN"
 "http://www.w3.org/TR/2001/REC-SVG-20010904/DTD/svg10.dtd">
<svg version="1.0" xmlns="http://www.w3.org/2000/svg"
 width="981.000000pt" height="970.000000pt" viewBox="0 0 981.000000 970.000000"
 preserveAspectRatio="xMidYMid meet">

<g transform="translate(0.000000,970.000000) scale(0.100000,-0.100000)"
fill="#000000" stroke="none">
<path d="M4555 9684 c-229 -32 -469 -89 -631 -149 -498 -186 -876 -539 -1118
-1045 -162 -340 -277 -788 -316 -1235 -28 -332 -21 -862 15 -1123 35 -251 124
-617 220 -907 408 -1235 1093 -2042 1886 -2220 98 -22 372 -31 481 -16 573 82
1061 452 1484 1124 111 178 319 591 403 802 265 667 382 1281 368 1934 -18
863 -252 1611 -652 2090 -330 396 -805 650 -1355 727 -110 15 -708 29 -785 18z"/>
<path d="M6665 2509 c-405 -411 -852 -646 -1400 -736 -156 -25 -543 -25 -705
0 -259 41 -484 113 -725 232 -241 119 -423 249 -645 461 -66 63 -125 114 -131
114 -38 0 -700 -203 -927 -284 -824 -295 -1371 -599 -1727 -961 -172 -175
-274 -330 -335 -512 -37 -112 -46 -203 -55 -556 l-7 -257 4902 0 4902 0 -7
248 c-7 290 -20 454 -41 537 -18 70 -107 261 -158 338 -83 125 -309 347 -501
492 -313 237 -877 513 -1443 706 -263 89 -859 269 -893 269 -8 0 -55 -41 -104
-91z"/>
</g>
</svg>
